<svg width="24" height="24" fill="none" xmlns="http://www.w3.org/2000/svg"><path fill-rule="evenodd" clip-rule="evenodd" d="M12 9.375a.75.75 0 01.75.75V20.25a.75.75 0 01-1.5 0V10.125a.75.75 0 01.75-.75zM12 3a.75.75 0 01.75.75v2.625a.75.75 0 01-1.5 0V3.75A.75.75 0 0112 3z" fill="#fff"/><path fill-rule="evenodd" clip-rule="evenodd" d="M12 7.125a1.125 1.125 0 100 2.25 1.125 1.125 0 000-2.25zM9.375 8.25a2.625 2.625 0 115.25 0 2.625 2.625 0 01-5.25 0zm9.375 8.625a.75.75 0 01.75.75v2.625a.75.75 0 01-1.5 0v-2.625a.75.75 0 01.75-.75zM18.75 3a.75.75 0 01.75.75v10.125a.75.75 0 01-1.5 0V3.75a.75.75 0 01.75-.75z" fill="#fff"/><path fill-rule="evenodd" clip-rule="evenodd" d="M18.75 14.625a1.125 1.125 0 100 2.25 1.125 1.125 0 000-2.25zm-2.625 1.125a2.625 2.625 0 115.25 0 2.625 2.625 0 01-5.25 0zM5.25 13.875a.75.75 0 01.75.75v5.625a.75.75 0 01-1.5 0v-5.625a.75.75 0 01.75-.75zM5.25 3a.75.75 0 01.75.75v7.125a.75.75 0 01-1.5 0V3.75A.75.75 0 015.25 3z" fill="#fff"/><path fill-rule="evenodd" clip-rule="evenodd" d="M5.25 11.625a1.125 1.125 0 100 2.25 1.125 1.125 0 000-2.25zM2.625 12.75a2.625 2.625 0 115.25 0 2.625 2.625 0 01-5.25 0z" fill="#fff"/></svg>